<svg width="16" height="27" viewBox="0 0 16 27" fill="none" xmlns="http://www.w3.org/2000/svg">
<path d="M2.66667 0.166687C3.37391 0.166687 4.05219 0.447638 4.55229 0.947735C5.05238 1.44783 5.33333 2.12611 5.33333 2.83335C5.33333 3.5406 5.05238 4.21888 4.55229 4.71897C4.05219 5.21907 3.37391 5.50002 2.66667 5.50002C1.95942 5.50002 1.28115 5.21907 0.781048 4.71897C0.280951 4.21888 0 3.5406 0 2.83335C0 2.12611 0.280951 1.44783 0.781048 0.947735C1.28115 0.447638 1.95942 0.166687 2.66667 0.166687ZM5.33333 13.5C5.33333 12.7928 5.05238 12.1145 4.55229 11.6144C4.05219 11.1143 3.37391 10.8334 2.66667 10.8334C1.95942 10.8334 1.28115 11.1143 0.781048 11.6144C0.280951 12.1145 0 12.7928 0 13.5C0 14.2073 0.280951 14.8855 0.781048 15.3856C1.28115 15.8857 1.95942 16.1667 2.66667 16.1667C3.37391 16.1667 4.05219 15.8857 4.55229 15.3856C5.05238 14.8855 5.33333 14.2073 5.33333 13.5ZM5.33333 24.1667C5.33333 23.4594 5.05238 22.7812 4.55229 22.2811C4.05219 21.781 3.37391 21.5 2.66667 21.5C1.95942 21.5 1.28115 21.781 0.781048 22.2811C0.280951 22.7812 0 23.4594 0 24.1667C0 24.8739 0.280951 25.5522 0.781048 26.0523C1.28115 26.5524 1.95942 26.8334 2.66667 26.8334C3.37391 26.8334 4.05219 26.5524 4.55229 26.0523C5.05238 25.5522 5.33333 24.8739 5.33333 24.1667ZM16 13.5C16 12.7928 15.719 12.1145 15.219 11.6144C14.7189 11.1143 14.0406 10.8334 13.3333 10.8334C12.6261 10.8334 11.9478 11.1143 11.4477 11.6144C10.9476 12.1145 10.6667 12.7928 10.6667 13.5C10.6667 14.2073 10.9476 14.8855 11.4477 15.3856C11.9478 15.8857 12.6261 16.1667 13.3333 16.1667C14.0406 16.1667 14.7189 15.8857 15.219 15.3856C15.719 14.8855 16 14.2073 16 13.5ZM13.3333 21.5C14.0406 21.5 14.7189 21.781 15.219 22.2811C15.719 22.7812 16 23.4594 16 24.1667C16 24.8739 15.719 25.5522 15.219 26.0523C14.7189 26.5524 14.0406 26.8334 13.3333 26.8334C12.6261 26.8334 11.9478 26.5524 11.4477 26.0523C10.9476 25.5522 10.6667 24.8739 10.6667 24.1667C10.6667 23.4594 10.9476 22.7812 11.4477 22.2811C11.9478 21.781 12.6261 21.5 13.3333 21.5ZM16 2.83335C16 2.12611 15.719 1.44783 15.219 0.947735C14.7189 0.447638 14.0406 0.166687 13.3333 0.166687C12.6261 0.166687 11.9478 0.447638 11.4477 0.947735C10.9476 1.44783 10.6667 2.12611 10.6667 2.83335C10.6667 3.5406 10.9476 4.21888 11.4477 4.71897C11.9478 5.21907 12.6261 5.50002 13.3333 5.50002C14.0406 5.50002 14.7189 5.21907 15.219 4.71897C15.719 4.21888 16 3.5406 16 2.83335Z" fill="#CCCCCC"/>
</svg>
