<svg width="362" height="71" viewBox="0 0 362 71" fill="none" xmlns="http://www.w3.org/2000/svg">
<path d="M20.4883 32.3301C20.4883 34.1855 20.8138 35.4551 21.4648 36.1387C22.1484 36.7897 23.6458 37.1152 25.957 37.1152H28.3008C31.6536 37.1152 34.388 35.862 36.5039 33.3555C38.6198 30.849 39.6777 27.3008 39.6777 22.7109L39.6289 22.2227C39.6289 17.6003 38.4245 13.9707 36.0156 11.334C33.6068 8.69727 30.5469 7.37891 26.8359 7.37891H25.6152C22.8809 7.37891 21.2695 8.04622 20.7812 9.38086C20.6185 9.80404 20.5371 12.2617 20.5371 16.7539V24.1758L20.4883 26.0312V32.3301ZM0.517578 66.5586C0.517578 64.3125 1.47786 62.5384 3.39844 61.2363C5.31901 59.9017 6.42578 58.4206 6.71875 56.793C7.17448 54.2214 7.40234 46.8809 7.40234 34.7715C7.40234 22.6621 7.10938 15.403 6.52344 12.9941C5.9375 10.5527 5.10742 8.8763 4.0332 7.96484C1.68945 6.01172 0.517578 4.74219 0.517578 4.15625V3.375C0.517578 2.04036 1.73828 1.19401 4.17969 0.835938C4.86328 0.738281 8.33008 0.689453 14.5801 0.689453L21.0254 0.591797H22.2949L26.1523 0.738281H30.0586C41.582 0.738281 49.2643 4.30273 53.1055 11.4316C54.5703 14.166 55.3027 17.0632 55.3027 20.123V21.4902C55.3027 26.959 53.3008 31.5814 49.2969 35.3574C45.293 39.1009 39.6452 41.2982 32.3535 41.9492C28.0566 42.3398 25.6315 42.6654 25.0781 42.9258C22.8971 43.9023 21.8066 47.5319 21.8066 53.8145C21.8066 56.7116 22.8158 58.974 24.834 60.6016C27.5358 62.7826 28.8867 64.6217 28.8867 66.1191C28.8867 67.291 27.6335 68.1048 25.127 68.5605C22.653 69.0163 19.056 69.2441 14.3359 69.2441C5.1237 69.2441 0.517578 68.349 0.517578 66.5586ZM71.6094 68.3652C67.4427 68.3652 65.3594 67.6979 65.3594 66.3633C65.3594 65.0286 66.4336 63.6126 68.582 62.1152C70.763 60.5853 72.0977 58.8763 72.5859 56.9883C73.0742 55.1003 73.3184 47.6458 73.3184 34.625C73.3184 21.5716 73.1882 14.5404 72.9277 13.5312C72.3418 11.2201 71.235 9.49479 69.6074 8.35547C66.6452 6.27214 65.1641 4.64453 65.1641 3.47266V2.78906C65.1641 1.61719 69.2656 1.03125 77.4688 1.03125L80.7891 0.884766H84.1094L85.2324 0.933594H86.3555C90.0664 0.933594 92.3125 1.08008 93.0938 1.37305C93.9076 1.63346 94.3145 2.46354 94.3145 3.86328C94.3145 4.70964 93.11 6.10938 90.7012 8.0625C89.3991 9.13672 88.5202 10.6667 88.0645 12.6523C87.6087 14.638 87.3809 22.304 87.3809 35.6504C87.3809 48.9967 87.5599 56.4023 87.918 57.8672C88.276 59.332 89.4479 60.9108 91.4336 62.6035C93.4193 64.2962 94.4121 65.696 94.4121 66.8027C94.4121 68.1048 93.11 68.7559 90.5059 68.7559H87.0879L85.9648 68.707H83.6699L80.3496 68.6094L75.9551 68.5117L73.8066 68.4141C73.0905 68.3815 72.3581 68.3652 71.6094 68.3652ZM124.928 1.17773H134.352C147.926 1.17773 155.283 1.34049 156.422 1.66602C157.594 1.95898 158.18 3.11458 158.18 5.13281C158.18 7.15104 152.402 16.64 140.846 33.5996C129.29 50.5267 123.512 59.2507 123.512 59.7715C123.512 61.1712 126.262 61.8711 131.764 61.8711C137.265 61.8711 141.35 61.3177 144.02 60.2109C146.689 59.0716 149.326 57.1999 151.93 54.5957C154.534 51.9915 156.487 50.6895 157.789 50.6895C159.319 50.6895 160.084 51.9915 160.084 54.5957C160.084 60.2272 159.319 64.2962 157.789 66.8027C156.878 68.3001 154.387 69.0488 150.318 69.0488H112.623C109.889 69.0488 108.115 68.8861 107.301 68.5605C105.966 68.0072 105.299 66.8516 105.299 65.0938C105.299 63.3034 106.129 61.1061 107.789 58.502C109.449 55.8652 115.178 47.418 124.977 33.1602C134.775 18.9023 139.674 11.4805 139.674 10.8945C139.674 9.13672 137.721 8.25781 133.814 8.25781C129.908 8.25781 126.751 8.68099 124.342 9.52734C121.933 10.3737 119.085 11.985 115.797 14.3613C112.509 16.7051 110.296 17.877 109.156 17.877C107.594 17.877 106.812 16.4772 106.812 13.6777C106.812 7.26497 107.561 3.4401 109.059 2.20312C109.872 1.51953 115.162 1.17773 124.928 1.17773ZM221.85 9.77148C221.85 11.9525 221.54 13.3848 220.922 14.0684C220.303 14.7194 219.359 15.0449 218.09 15.0449L217.211 14.6055L216.186 13.9219L215.014 13.2383C213.874 12.5872 211.677 11.6921 208.422 10.5527C205.199 9.41341 202.188 8.84375 199.389 8.84375C196.589 8.84375 194.538 9.85286 193.236 11.8711C191.967 13.8893 191.332 18.0397 191.332 24.3223C191.332 26.1126 191.885 27.5449 192.992 28.6191C194.099 29.6934 195.629 30.2305 197.582 30.2305C199.535 30.2305 201.684 29.5469 204.027 28.1797C206.404 26.8125 208.08 26.1289 209.057 26.1289C210.066 26.1289 210.945 26.7962 211.693 28.1309C212.442 29.4329 212.816 30.9954 212.816 32.8184C212.816 37.7337 212.279 40.7611 211.205 41.9004L209.887 42.6328C207.966 42.6328 206.436 42.1934 205.297 41.3145C202.79 39.3939 200.951 38.4336 199.779 38.4336C196.068 38.4336 193.578 39.2148 192.309 40.7773C191.69 41.5586 191.381 44.2441 191.381 48.834C191.381 53.3913 192.309 56.8581 194.164 59.2344C195.141 60.5039 197.289 61.1387 200.609 61.1387C203.93 61.1387 208.161 60.0156 213.305 57.7695C218.48 55.4909 221.443 54.3516 222.191 54.3516C223.591 54.3516 224.291 55.6699 224.291 58.3066V60.0645C224.291 60.9759 223.965 62.2454 223.314 63.873C222.663 65.5007 221.654 66.7702 220.287 67.6816C218.92 68.5931 216.674 69.0488 213.549 69.0488H178.148C172.745 69.0488 170.043 68.349 170.043 66.9492V65.3867C170.043 64.2799 171.036 63.1732 173.021 62.0664C175.04 60.9596 176.212 59.7715 176.537 58.502C176.895 57.1999 177.074 49.7129 177.074 36.041C177.074 22.3691 176.846 14.6217 176.391 12.7988C175.935 10.9759 174.796 9.29948 172.973 7.76953C171.15 6.23958 170.238 4.72591 170.238 3.22852C170.238 2.1543 171.41 1.55208 173.754 1.42188C176.098 1.25911 183.796 1.17773 196.85 1.17773L209.545 1.12891H211.596C214.883 1.12891 217.195 1.60091 218.529 2.54492C220.743 4.10742 221.85 6.51628 221.85 9.77148ZM290.842 13.7754C290.842 17.0632 289.882 18.707 287.961 18.707C287.115 18.707 285.096 17.4375 281.906 14.8984C278.716 12.3594 276.063 10.6016 273.947 9.625C271.831 8.61589 269.406 8.11133 266.672 8.11133C266.607 8.11133 266.558 8.11133 266.525 8.11133C263.889 8.11133 261.366 8.8112 258.957 10.2109C252.186 14.1497 248.801 22.6133 248.801 35.6016C248.801 39.3125 249.387 42.9258 250.559 46.4414C253.977 56.8255 260.52 62.0176 270.188 62.0176C270.22 62.0176 270.253 62.0176 270.285 62.0176C274.712 62.0176 279.302 60.3574 284.055 57.0371C287.115 54.9212 288.872 53.8633 289.328 53.8633C290.923 53.8633 291.721 54.612 291.721 56.1094V57.3301C291.721 58.0788 290.956 59.5924 289.426 61.8711C287.928 64.1497 285.91 65.875 283.371 67.0469C278.944 69.0977 273.736 70.123 267.746 70.123H266.086C261.301 70.123 256.906 69.2441 252.902 67.4863C244.927 63.9707 239.393 58.1602 236.301 50.0547C234.641 45.7253 233.811 41.5098 233.811 37.4082V33.9902C233.811 29.9212 234.608 25.7708 236.203 21.5391C239.491 12.7826 245.122 6.67904 253.098 3.22852C257.297 1.4056 261.447 0.494141 265.549 0.494141H267.16C277.447 0.494141 284.25 1.4707 287.57 3.42383C289.751 4.69336 290.842 8.14388 290.842 13.7754ZM318.721 8.84375C316.019 8.84375 313.171 10.0807 310.176 12.5547C305.391 16.526 302.868 18.5117 302.607 18.5117C300.915 18.5117 300.068 17.4538 300.068 15.3379V13.8242C300.068 10.3086 300.361 7.13477 300.947 4.30273C301.24 2.83789 301.891 1.95898 302.9 1.66602C303.942 1.37305 313.74 1.22656 332.295 1.22656L350.605 1.12891H353.828C357.344 1.12891 359.427 1.69857 360.078 2.83789C360.762 3.97721 361.104 6.46745 361.104 10.3086V13.4336C361.104 16.8841 360.306 18.6094 358.711 18.6094C357.311 18.6094 355.618 17.4863 353.633 15.2402C351.647 12.9941 349.824 11.3828 348.164 10.4062C346.504 9.39714 344.323 8.89258 341.621 8.89258C339.473 8.89258 338.219 10.3086 337.861 13.1406C337.731 14.1172 337.666 21.3926 337.666 34.9668C337.666 48.5085 337.845 56.0117 338.203 57.4766C338.561 58.9414 339.896 60.5202 342.207 62.2129C344.518 63.873 345.674 65.2891 345.674 66.4609C345.674 67.6003 345.088 68.3164 343.916 68.6094C342.744 68.9023 338.952 69.0488 332.539 69.0488H324.336C321.113 69.0488 318.9 68.9349 317.695 68.707C316.523 68.4792 315.938 67.8281 315.938 66.7539C315.938 65.6797 317.044 64.1497 319.258 62.1641C321.471 60.1784 322.773 58.4531 323.164 56.9883C323.555 55.4909 323.75 48.1016 323.75 34.8203C323.75 21.5391 323.62 14.2311 323.359 12.8965C323.099 11.5293 322.643 10.5202 321.992 9.86914C321.374 9.18555 320.283 8.84375 318.721 8.84375Z" fill="#3D7685"/>
</svg>
