<svg width="56" height="70" viewBox="0 0 56 70" fill="none" xmlns="http://www.w3.org/2000/svg">
<path d="M20.4883 32.3301C20.4883 34.1855 20.8138 35.4551 21.4648 36.1387C22.1484 36.7897 23.6458 37.1152 25.957 37.1152H28.3008C31.6536 37.1152 34.388 35.862 36.5039 33.3555C38.6198 30.849 39.6777 27.3008 39.6777 22.7109L39.6289 22.2227C39.6289 17.6003 38.4245 13.9707 36.0156 11.334C33.6068 8.69727 30.5469 7.37891 26.8359 7.37891H25.6152C22.8809 7.37891 21.2695 8.04622 20.7812 9.38086C20.6185 9.80404 20.5371 12.2617 20.5371 16.7539V24.1758L20.4883 26.0312V32.3301ZM0.517578 66.5586C0.517578 64.3125 1.47786 62.5384 3.39844 61.2363C5.31901 59.9017 6.42578 58.4206 6.71875 56.793C7.17448 54.2214 7.40234 46.8809 7.40234 34.7715C7.40234 22.6621 7.10938 15.403 6.52344 12.9941C5.9375 10.5527 5.10742 8.8763 4.0332 7.96484C1.68945 6.01172 0.517578 4.74219 0.517578 4.15625V3.375C0.517578 2.04036 1.73828 1.19401 4.17969 0.835938C4.86328 0.738281 8.33008 0.689453 14.5801 0.689453L21.0254 0.591797H22.2949L26.1523 0.738281H30.0586C41.582 0.738281 49.2643 4.30273 53.1055 11.4316C54.5703 14.166 55.3027 17.0632 55.3027 20.123V21.4902C55.3027 26.959 53.3008 31.5814 49.2969 35.3574C45.293 39.1009 39.6452 41.2982 32.3535 41.9492C28.0566 42.3398 25.6315 42.6654 25.0781 42.9258C22.8971 43.9023 21.8066 47.5319 21.8066 53.8145C21.8066 56.7116 22.8158 58.974 24.834 60.6016C27.5358 62.7826 28.8867 64.6217 28.8867 66.1191C28.8867 67.291 27.6335 68.1048 25.127 68.5605C22.653 69.0163 19.056 69.2441 14.3359 69.2441C5.1237 69.2441 0.517578 68.349 0.517578 66.5586Z" fill="#3D7685"/>
</svg>
