<svg width="722" height="141" viewBox="0 0 722 141" fill="none" xmlns="http://www.w3.org/2000/svg">
<path d="M39.9766 64.6602C39.9766 68.3711 40.6276 70.9102 41.9297 72.2773C43.2969 73.5794 46.2917 74.2305 50.9141 74.2305H55.6016C62.3073 74.2305 67.776 71.724 72.0078 66.7109C76.2396 61.6979 78.3555 54.6016 78.3555 45.4219L78.2578 44.4453C78.2578 35.2005 75.849 27.9414 71.0312 22.668C66.2135 17.3945 60.0938 14.7578 52.6719 14.7578H50.2305C44.7617 14.7578 41.5391 16.0924 40.5625 18.7617C40.237 19.6081 40.0742 24.5234 40.0742 33.5078V48.3516L39.9766 52.0625V64.6602ZM0.0351562 133.117C0.0351562 128.625 1.95573 125.077 5.79688 122.473C9.63802 119.803 11.8516 116.841 12.4375 113.586C13.349 108.443 13.8047 93.7617 13.8047 69.543C13.8047 45.3242 13.2188 30.806 12.0469 25.9883C10.875 21.1055 9.21484 17.7526 7.06641 15.9297C2.37891 12.0234 0.0351562 9.48438 0.0351562 8.3125V6.75C0.0351562 4.08073 2.47656 2.38802 7.35938 1.67188C8.72656 1.47656 15.6602 1.37891 28.1602 1.37891L41.0508 1.18359H43.5898L51.3047 1.47656H59.1172C82.1641 1.47656 97.5286 8.60547 105.211 22.8633C108.141 28.332 109.605 34.1263 109.605 40.2461V42.9805C109.605 53.918 105.602 63.1628 97.5938 70.7148C89.5859 78.2018 78.2904 82.5964 63.707 83.8984C55.1133 84.6797 50.263 85.3307 49.1562 85.8516C44.7943 87.8047 42.6133 95.0638 42.6133 107.629C42.6133 113.423 44.6315 117.948 48.668 121.203C54.0716 125.565 56.7734 129.243 56.7734 132.238C56.7734 134.582 54.2669 136.21 49.2539 137.121C44.306 138.033 37.112 138.488 27.6719 138.488C9.2474 138.488 0.0351562 136.698 0.0351562 133.117ZM142.219 136.73C133.885 136.73 129.719 135.396 129.719 132.727C129.719 130.057 131.867 127.225 136.164 124.23C140.526 121.171 143.195 117.753 144.172 113.977C145.148 110.201 145.637 95.2917 145.637 69.25C145.637 43.1432 145.376 29.0807 144.855 27.0625C143.684 22.4401 141.47 18.9896 138.215 16.7109C132.29 12.5443 129.328 9.28906 129.328 6.94531V5.57812C129.328 3.23438 137.531 2.0625 153.938 2.0625L160.578 1.76953H167.219L169.465 1.86719H171.711C179.133 1.86719 183.625 2.16016 185.188 2.74609C186.815 3.26693 187.629 4.92708 187.629 7.72656C187.629 9.41927 185.22 12.2188 180.402 16.125C177.798 18.2734 176.04 21.3333 175.129 25.3047C174.217 29.276 173.762 44.6081 173.762 71.3008C173.762 97.9935 174.12 112.805 174.836 115.734C175.552 118.664 177.896 121.822 181.867 125.207C185.839 128.592 187.824 131.392 187.824 133.605C187.824 136.21 185.22 137.512 180.012 137.512H173.176L170.93 137.414H166.34L159.699 137.219L150.91 137.023L146.613 136.828C145.181 136.763 143.716 136.73 142.219 136.73ZM248.855 2.35547H267.703C294.852 2.35547 309.565 2.68099 311.844 3.33203C314.188 3.91797 315.359 6.22917 315.359 10.2656C315.359 14.3021 303.803 33.2799 280.691 67.1992C257.579 101.053 246.023 118.501 246.023 119.543C246.023 122.342 251.525 123.742 262.527 123.742C273.53 123.742 281.701 122.635 287.039 120.422C292.378 118.143 297.651 114.4 302.859 109.191C308.068 103.983 311.974 101.379 314.578 101.379C317.638 101.379 319.168 103.983 319.168 109.191C319.168 120.454 317.638 128.592 314.578 133.605C312.755 136.6 307.775 138.098 299.637 138.098H224.246C218.777 138.098 215.229 137.772 213.602 137.121C210.932 136.014 209.598 133.703 209.598 130.188C209.598 126.607 211.258 122.212 214.578 117.004C217.898 111.73 229.357 94.8359 248.953 66.3203C268.549 37.8047 278.348 22.9609 278.348 21.7891C278.348 18.2734 274.441 16.5156 266.629 16.5156C258.816 16.5156 252.501 17.362 247.684 19.0547C242.866 20.7474 237.169 23.9701 230.594 28.7227C224.018 33.4102 219.591 35.7539 217.312 35.7539C214.188 35.7539 212.625 32.9544 212.625 27.3555C212.625 14.5299 214.122 6.88021 217.117 4.40625C218.745 3.03906 229.324 2.35547 248.855 2.35547ZM442.699 19.543C442.699 23.9049 442.081 26.7695 440.844 28.1367C439.607 29.4388 437.719 30.0898 435.18 30.0898L433.422 29.2109L431.371 27.8438L429.027 26.4766C426.749 25.1745 422.354 23.3841 415.844 21.1055C409.398 18.8268 403.376 17.6875 397.777 17.6875C392.178 17.6875 388.077 19.7057 385.473 23.7422C382.934 27.7786 381.664 36.0794 381.664 48.6445C381.664 52.2253 382.771 55.0898 384.984 57.2383C387.198 59.3867 390.258 60.4609 394.164 60.4609C398.07 60.4609 402.367 59.0938 407.055 56.3594C411.807 53.625 415.16 52.2578 417.113 52.2578C419.132 52.2578 420.889 53.5924 422.387 56.2617C423.884 58.8659 424.633 61.9909 424.633 65.6367C424.633 75.4674 423.559 81.5221 421.41 83.8008L418.773 85.2656C414.932 85.2656 411.872 84.3867 409.594 82.6289C404.581 78.7878 400.902 76.8672 398.559 76.8672C391.137 76.8672 386.156 78.4297 383.617 81.5547C382.38 83.1172 381.762 88.4883 381.762 97.668C381.762 106.783 383.617 113.716 387.328 118.469C389.281 121.008 393.578 122.277 400.219 122.277C406.859 122.277 415.323 120.031 425.609 115.539C435.961 110.982 441.885 108.703 443.383 108.703C446.182 108.703 447.582 111.34 447.582 116.613V120.129C447.582 121.952 446.931 124.491 445.629 127.746C444.327 131.001 442.309 133.54 439.574 135.363C436.84 137.186 432.348 138.098 426.098 138.098H355.297C344.49 138.098 339.086 136.698 339.086 133.898V130.773C339.086 128.56 341.072 126.346 345.043 124.133C349.079 121.919 351.423 119.543 352.074 117.004C352.79 114.4 353.148 99.4258 353.148 72.082C353.148 44.7383 352.693 29.2435 351.781 25.5977C350.87 21.9518 348.591 18.599 344.945 15.5391C341.299 12.4792 339.477 9.45182 339.477 6.45703C339.477 4.30859 341.82 3.10417 346.508 2.84375C351.195 2.51823 366.592 2.35547 392.699 2.35547L418.09 2.25781H422.191C428.767 2.25781 433.389 3.20182 436.059 5.08984C440.486 8.21484 442.699 13.0326 442.699 19.543ZM580.684 27.5508C580.684 34.1263 578.763 37.4141 574.922 37.4141C573.229 37.4141 569.193 34.875 562.812 29.7969C556.432 24.7188 551.126 21.2031 546.895 19.25C542.663 17.2318 537.812 16.2227 532.344 16.2227C532.214 16.2227 532.116 16.2227 532.051 16.2227C526.777 16.2227 521.732 17.6224 516.914 20.4219C503.372 28.2995 496.602 45.2266 496.602 71.2031C496.602 78.625 497.773 85.8516 500.117 92.8828C506.953 113.651 520.039 124.035 539.375 124.035C539.44 124.035 539.505 124.035 539.57 124.035C548.424 124.035 557.604 120.715 567.109 114.074C573.229 109.842 576.745 107.727 577.656 107.727C580.846 107.727 582.441 109.224 582.441 112.219V114.66C582.441 116.158 580.911 119.185 577.852 123.742C574.857 128.299 570.82 131.75 565.742 134.094C556.888 138.195 546.471 140.246 534.492 140.246H531.172C521.602 140.246 512.812 138.488 504.805 134.973C488.854 127.941 477.786 116.32 471.602 100.109C468.281 91.4505 466.621 83.0195 466.621 74.8164V67.9805C466.621 59.8424 468.216 51.5417 471.406 43.0781C477.982 25.5651 489.245 13.3581 505.195 6.45703C513.594 2.8112 521.895 0.988281 530.098 0.988281H533.32C553.893 0.988281 567.5 2.94141 574.141 6.84766C578.503 9.38672 580.684 16.2878 580.684 27.5508ZM636.441 17.6875C631.038 17.6875 625.341 20.1615 619.352 25.1094C609.781 33.0521 604.736 37.0234 604.215 37.0234C600.829 37.0234 599.137 34.9076 599.137 30.6758V27.6484C599.137 20.6172 599.723 14.2695 600.895 8.60547C601.48 5.67578 602.783 3.91797 604.801 3.33203C606.884 2.74609 626.48 2.45312 663.59 2.45312L700.211 2.25781H706.656C713.688 2.25781 717.854 3.39714 719.156 5.67578C720.523 7.95443 721.207 12.9349 721.207 20.6172V26.8672C721.207 33.7682 719.612 37.2188 716.422 37.2188C713.622 37.2188 710.237 34.9727 706.266 30.4805C702.294 25.9883 698.648 22.7656 695.328 20.8125C692.008 18.7943 687.646 17.7852 682.242 17.7852C677.945 17.7852 675.439 20.6172 674.723 26.2812C674.462 28.2344 674.332 42.7852 674.332 69.9336C674.332 97.0169 674.69 112.023 675.406 114.953C676.122 117.883 678.792 121.04 683.414 124.426C688.036 127.746 690.348 130.578 690.348 132.922C690.348 135.201 689.176 136.633 686.832 137.219C684.488 137.805 676.904 138.098 664.078 138.098H647.672C641.227 138.098 636.799 137.87 634.391 137.414C632.047 136.958 630.875 135.656 630.875 133.508C630.875 131.359 633.089 128.299 637.516 124.328C641.943 120.357 644.547 116.906 645.328 113.977C646.109 110.982 646.5 96.2031 646.5 69.6406C646.5 43.0781 646.24 28.4622 645.719 25.793C645.198 23.0586 644.286 21.0404 642.984 19.7383C641.747 18.3711 639.566 17.6875 636.441 17.6875Z" fill="#F3F7F8"/>
</svg>
